<?xml version="1.0" encoding="UTF-8"?>
<svg id="Layer_1" data-name="Layer 1" xmlns="http://www.w3.org/2000/svg" viewBox="0 0 1381.48 190.25">
  <defs>
    <style>
      .cls-1 {
        fill: none;
        stroke: red;
        stroke-linecap: round;
        stroke-linejoin: round;
        stroke-width: .1px;
      }
    </style>
  </defs>
  <path class="cls-1" d="M8.6,28.44c-2.33,0-4.56,.96-6.16,2.65C.84,32.77,0,35.05,.12,37.37"/>
  <line class="cls-1" x1="19.67" y1="28.44" x2="8.57" y2="28.44"/>
  <polyline class="cls-1" points="149.33 42.6 149.33 8.58 84.89 8.58 84.89 42.6 149.33 42.6"/>
  <path class="cls-1" d="M77.48,27.3c.94,0,1.71-.77,1.71-1.71s-.77-1.71-1.71-1.71-1.71,.77-1.71,1.71,.77,1.71,1.71,1.71"/>
  <polyline class="cls-1" points="305.93 34.26 305.93 25.62 280.31 25.62 280.31 34.26 305.93 34.26"/>
  <path class="cls-1" d="M156.8,27.3c.94,0,1.71-.77,1.71-1.71s-.77-1.71-1.71-1.71-1.71,.77-1.71,1.71,.77,1.71,1.71,1.71"/>
  <polyline class="cls-1" points="70.85 96.66 70.85 105.3 45.17 105.3 45.17 96.66 70.85 96.66"/>
  <polyline class="cls-1" points="59.51 42.6 59.51 51.24 33.83 51.24 33.83 42.6 59.51 42.6"/>
  <polyline class="cls-1" points="164.99 157.68 169.31 165.18 147.05 178.02 142.73 170.52 164.99 157.68"/>
  <polyline class="cls-1" points="192.89 96.66 192.89 105.3 167.21 105.3 167.21 96.66 192.89 96.66"/>
  <polyline class="cls-1" points="181.55 42.6 181.55 51.24 155.87 51.24 155.87 42.6 181.55 42.6"/>
  <polyline class="cls-1" points="290.27 85.26 294.59 92.76 272.39 105.6 268.07 98.1 290.27 85.26"/>
  <polyline class="cls-1" points="111.11 188.1 105.17 185.76 99.29 183.24 93.53 180.48 87.89 177.48 82.31 174.3 76.91 170.88 71.63 167.28 66.47 163.5 61.49 159.54 56.63 155.34 51.95 151.02 47.45 146.46 43.07 141.78 38.93 136.92 34.91 131.94 31.13 126.78 27.53 121.5 24.11 116.1 20.93 110.58 17.99 104.88 15.23 99.12 12.65 93.24 10.31 87.3 8.21 81.24 6.35 75.18 4.73 69 3.35 62.76 2.15 56.46 1.19 50.1 .53 43.74 .05 37.38"/>
  <path class="cls-1" d="M111.13,188.04c3.77,1.39,7.75,2.1,11.77,2.1"/>
  <line class="cls-1" x1="122.87" y1="190.2" x2="216.95" y2="190.2"/>
  <path class="cls-1" d="M216.96,190.14c4.02,0,8-.71,11.77-2.1"/>
  <path class="cls-1" d="M228.73,188.1c64.81-23.9,108.75-84.65,111.17-153.73"/>
  <path class="cls-1" d="M339.88,34.35c.08-2.3-.78-4.54-2.38-6.19-1.6-1.66-3.8-2.59-6.11-2.59"/>
  <line class="cls-1" x1="320.15" y1="25.62" x2="331.37" y2="25.62"/>
  <path class="cls-1" d="M311.69,17.07c0,4.69,3.8,8.49,8.49,8.49"/>
  <line class="cls-1" x1="311.63" y1="8.58" x2="311.63" y2="17.1"/>
  <path class="cls-1" d="M311.63,8.55c0-4.69-3.8-8.49-8.49-8.49"/>
  <line class="cls-1" x1="303.11" y1=".06" x2="36.65" y2=".06"/>
  <path class="cls-1" d="M36.68,.06C31.99,.06,28.19,3.86,28.19,8.55"/>
  <line class="cls-1" x1="28.19" y1="8.58" x2="28.19" y2="19.92"/>
  <path class="cls-1" d="M19.7,28.38c4.69,0,8.49-3.8,8.49-8.49"/>
  <path class="cls-1" d="M322.8,152.82c-.12,2.33,.72,4.6,2.32,6.29,1.6,1.69,3.83,2.65,6.16,2.65"/>
  <line class="cls-1" x1="331.25" y1="161.82" x2="342.41" y2="161.82"/>
  <path class="cls-1" d="M350.93,170.31c0-4.69-3.8-8.49-8.49-8.49"/>
  <line class="cls-1" x1="350.87" y1="170.34" x2="350.87" y2="181.68"/>
  <path class="cls-1" d="M350.93,181.65c0,4.69,3.8,8.49,8.49,8.49"/>
  <line class="cls-1" x1="359.39" y1="190.2" x2="625.85" y2="190.2"/>
  <path class="cls-1" d="M625.88,190.14c4.69,0,8.49-3.8,8.49-8.49"/>
  <line class="cls-1" x1="634.37" y1="181.68" x2="634.37" y2="173.16"/>
  <path class="cls-1" d="M642.86,164.64c-4.69,0-8.49,3.8-8.49,8.49"/>
  <line class="cls-1" x1="642.83" y1="164.64" x2="654.11" y2="164.64"/>
  <path class="cls-1" d="M654.14,164.64c2.3,0,4.51-.94,6.11-2.59,1.6-1.66,2.46-3.89,2.38-6.19"/>
  <polyline class="cls-1" points="662.57 155.88 662.27 149.58 661.67 143.34 660.89 137.1 659.87 130.86 658.61 124.74 657.11 118.62 655.43 112.56 653.51 106.56 651.35 100.68 648.95 94.86 646.37 89.1 643.61 83.46 640.61 77.94 637.37 72.54 634.01 67.26 630.41 62.1 626.63 57.06 622.67 52.14 618.53 47.46 614.21 42.84 609.71 38.46 605.09 34.2 600.29 30.12 595.37 26.22 590.27 22.56 585.11 19.02 579.77 15.72 574.31 12.6 568.73 9.66 563.03 6.96 557.27 4.44 551.45 2.16"/>
  <path class="cls-1" d="M551.49,2.15c-3.77-1.39-7.75-2.1-11.77-2.1"/>
  <line class="cls-1" x1="539.69" y1=".06" x2="445.55" y2=".06"/>
  <path class="cls-1" d="M445.6,.05c-4.02,0-8,.71-11.77,2.1"/>
  <polyline class="cls-1" points="433.79 2.16 427.85 4.5 421.97 7.02 416.21 9.78 410.57 12.78 405.05 15.96 399.65 19.38 394.31 22.98 389.21 26.76 384.17 30.72 379.37 34.92 374.63 39.24 370.13 43.8 365.81 48.48 361.61 53.34 357.65 58.32 353.87 63.48 350.27 68.76 346.85 74.16 343.67 79.68 340.67 85.38 337.91 91.14 335.39 97.02 333.05 102.96 330.95 109.02 329.09 115.08 327.41 121.26 326.03 127.5 324.89 133.8 323.93 140.16 323.21 146.52 322.79 152.88"/>
  <polyline class="cls-1" points="617.33 97.5 613.01 105 590.81 92.16 595.13 84.66 617.33 97.5"/>
  <polyline class="cls-1" points="504.23 139.02 504.23 147.66 478.61 147.66 478.61 139.02 504.23 139.02"/>
  <polyline class="cls-1" points="515.57 84.96 515.57 93.6 489.95 93.6 489.95 84.96 515.57 84.96"/>
  <polyline class="cls-1" points="491.99 25.08 487.67 32.58 465.47 19.74 469.79 12.24 491.99 25.08"/>
  <polyline class="cls-1" points="382.19 139.02 382.19 147.66 356.57 147.66 356.57 139.02 382.19 139.02"/>
  <polyline class="cls-1" points="393.53 84.96 393.53 93.6 367.91 93.6 367.91 84.96 393.53 84.96"/>
  <path class="cls-1" d="M479.54,162.9c-.94,0-1.71,.77-1.71,1.71s.77,1.71,1.71,1.71,1.71-.77,1.71-1.71-.77-1.71-1.71-1.71"/>
  <polyline class="cls-1" points="602.99 164.64 602.99 156 628.67 156 628.67 164.64 602.99 164.64"/>
  <path class="cls-1" d="M400.16,162.9c-.94,0-1.71,.77-1.71,1.71s.77,1.71,1.71,1.71,1.71-.77,1.71-1.71-.77-1.71-1.71-1.71"/>
  <polyline class="cls-1" points="407.57 181.68 407.57 147.66 472.07 147.66 472.07 181.68 407.57 181.68"/>
  <path class="cls-1" d="M1287.92,161.7c1.57,0,2.85-1.28,2.85-2.85s-1.28-2.85-2.85-2.85-2.85,1.28-2.85,2.85,1.28,2.85,2.85,2.85"/>
  <path class="cls-1" d="M1287.92,25.56c1.57,0,2.85-1.28,2.85-2.85s-1.28-2.85-2.85-2.85-2.85,1.28-2.85,2.85,1.28,2.85,2.85,2.85"/>
  <polyline class="cls-1" points="1123.49 173.04 1148.99 173.04 1148.99 181.56 1174.49 181.56 1174.49 173.04 1270.85 173.04 1270.85 181.56 1296.41 181.56 1296.41 173.04 1321.91 173.04 1321.91 147.54 1282.19 147.54 1282.19 34.08 1321.91 34.08 1321.91 8.58 1296.41 8.58 1296.41 .06 1270.85 .06 1270.85 8.58 1174.49 8.58 1174.49 .06 1148.99 .06 1148.99 8.58 1123.49 8.58 1123.49 173.04"/>
  <polyline class="cls-1" points="699.77 95.16 699.77 86.52 674.09 86.52 674.09 95.16 699.77 95.16"/>
  <polyline class="cls-1" points="763.49 144.72 791.81 144.72 791.81 36.96 763.49 36.96 763.49 144.72"/>
  <polyline class="cls-1" points="712.43 173.04 712.43 181.56 737.93 181.56 737.93 173.04 834.35 173.04 834.35 181.56 859.85 181.56 859.85 173.04 885.35 173.04 885.35 8.58 859.85 8.58 859.85 .06 834.35 .06 834.35 8.58 737.93 8.58 737.93 .06 712.43 .06 712.43 8.58 686.93 8.58 686.93 65.28"/>
  <path class="cls-1" d="M686.96,65.28c-14.1,0-25.53,11.43-25.53,25.53s11.43,25.53,25.53,25.53"/>
  <polyline class="cls-1" points="712.43 173.04 686.93 173.04 686.93 116.34"/>
  <polyline class="cls-1" points="1317.59 86.52 1317.59 95.16 1343.21 95.16 1343.21 86.52 1317.59 86.52"/>
  <path class="cls-1" d="M1355.96,117.06c1.57,0,2.85-1.28,2.85-2.85s-1.28-2.85-2.85-2.85-2.85,1.28-2.85,2.85,1.28,2.85,2.85,2.85"/>
  <path class="cls-1" d="M1355.96,70.26c1.57,0,2.85-1.28,2.85-2.85s-1.28-2.85-2.85-2.85-2.85,1.28-2.85,2.85,1.28,2.85,2.85,2.85"/>
  <polyline class="cls-1" points="1368.65 8.58 1368.65 .06 1343.15 .06 1343.15 8.58 1330.43 8.58 1330.43 65.28"/>
  <path class="cls-1" d="M1330.46,65.28c-14.1,0-25.53,11.43-25.53,25.53s11.43,25.53,25.53,25.53"/>
  <polyline class="cls-1" points="1368.65 8.58 1381.43 8.58 1381.43 173.04 1368.65 173.04 1368.65 181.56 1343.15 181.56 1343.15 173.04 1330.43 173.04 1330.43 116.34"/>
  <path class="cls-1" d="M910.88,157.74c.94,0,1.71-.77,1.71-1.71s-.77-1.71-1.71-1.71-1.71,.77-1.71,1.71,.77,1.71,1.71,1.71"/>
  <polyline class="cls-1" points="1095.11 34.08 1089.47 28.44 919.37 28.44 913.73 34.08 913.73 147.54 919.37 153.24 1089.47 153.24 1095.11 147.54 1095.11 34.08"/>
  <path class="cls-1" d="M910.88,27.3c.94,0,1.71-.77,1.71-1.71s-.77-1.71-1.71-1.71-1.71,.77-1.71,1.71,.77,1.71,1.71,1.71"/>
  <path class="cls-1" d="M1097.96,27.3c.94,0,1.71-.77,1.71-1.71s-.77-1.71-1.71-1.71-1.71,.77-1.71,1.71,.77,1.71,1.71,1.71"/>
  <path class="cls-1" d="M1097.96,157.74c.94,0,1.71-.77,1.71-1.71s-.77-1.71-1.71-1.71-1.71,.77-1.71,1.71,.77,1.71,1.71,1.71"/>
  <polyline class="cls-1" points="1114.97 173.04 1089.47 173.04 1089.47 181.56 1063.97 181.56 1063.97 173.04 944.87 173.04 944.87 181.56 919.37 181.56 919.37 173.04 893.87 173.04 893.87 8.58 919.37 8.58 919.37 .06 944.87 .06 944.87 8.58 1063.97 8.58 1063.97 .06 1089.47 .06 1089.47 8.58 1114.97 8.58 1114.97 173.04"/>
  <polyline class="cls-1" points="1043.99 49.68 1043.99 75.24 1052.51 75.24 1052.51 87.96"/>
  <polyline class="cls-1" points="1043.99 49.68 1052.51 49.68 1052.51 36.96 1069.49 36.96 1069.55 37.8 1069.61 38.64 1069.67 39.54 1069.73 40.38 1069.73 41.22 1069.79 42 1069.85 42.84 1069.85 43.68 1069.91 44.46 1069.91 45.24 1069.91 46.02 1069.97 46.8 1069.97 47.58 1069.97 48.36 1069.97 49.14 1069.97 49.86 1069.97 50.58 1069.97 51.36 1069.97 52.08 1069.97 52.8 1069.97 53.52 1069.91 54.18 1069.91 54.9 1069.91 55.56 1069.85 56.28 1069.85 56.94 1069.79 57.6 1069.79 58.26 1069.73 58.86 1069.67 59.52 1069.61 60.18 1069.61 60.78 1069.55 61.44 1069.49 62.04 1069.43 62.64 1069.37 63.24 1069.31 63.84 1069.25 64.38 1069.13 64.98 1069.07 65.58 1069.01 66.12 1068.95 66.66 1068.83 67.26 1068.77 67.8 1068.65 68.34 1068.59 68.88 1068.47 69.42 1068.41 69.96 1068.17 70.98 1067.99 72 1067.75 73.02 1067.57 74.04 1067.33 75 1067.09 76.02 1066.61 77.94 1066.37 78.96 1066.07 79.92 1065.83 80.88 1065.59 81.9 1065.35 82.92 1065.05 84 1064.93 84.48 1064.81 85.02 1064.69 85.56 1064.57 86.1 1064.45 86.7 1064.33 87.24 1064.21 87.84 1064.09 88.38 1063.97 88.98 1063.85 89.58 1063.79 90.18 1063.67 90.78 1063.55 91.44 1063.43 92.04 1063.31 92.7 1063.25 93.36 1063.13 94.02 1063.01 94.68 1062.95 95.34 1062.83 96.06 1062.77 96.78 1062.65 97.5 1062.59 98.22 1062.53 98.94 1062.41 99.72 1062.35 100.44 1062.29 101.22 1062.17 102 1062.11 102.78 1062.05 103.62 1061.99 104.4 1061.93 105.24 1061.87 106.02 1061.81 106.86 1061.75 107.7 1061.69 108.54 1061.57 110.28 1061.45 111.96 1061.21 115.44 1061.09 117.18 1061.03 118.02 1060.91 118.86 1060.85 119.76 1060.79 120.6 1060.73 121.38 1060.61 122.22 1060.55 123 1060.49 123.84 1060.37 124.56 1060.25 125.34 1060.19 126.06 1060.13 126.42 1060.07 126.78 1060.01 127.14 1059.95 127.5 1059.89 127.8 1059.83 128.16 1059.77 128.46 1059.71 128.82 1059.59 129.12 1059.53 129.42 1059.47 129.72 1059.41 130.02 1059.29 130.32 1059.23 130.56 1059.17 130.86 1059.05 131.1 1058.99 131.34 1058.87 131.64 1058.81 131.82 1058.69 132.06 1058.63 132.3 1058.51 132.54 1058.45 132.72 1058.33 132.9 1058.21 133.08 1058.09 133.26 1058.03 133.44 1057.91 133.62 1057.79 133.74 1057.67 133.86 1057.55 134.04 1057.43 134.16 1057.31 134.22 1057.19 134.34 1057.07 134.46 1056.95 134.52 1056.83 134.58 1056.65 134.64 1056.53 134.7 1056.41 134.76 1056.29 134.76 1056.11 134.82 1055.99 134.82 1055.87 134.82 1055.69 134.82 1055.57 134.82 1055.39 134.76 1055.27 134.76 1055.15 134.7 1054.97 134.64 1054.85 134.58 1054.67 134.52 1054.55 134.46 1054.37 134.34 1054.25 134.28 1054.07 134.16 1053.95 134.04 1053.77 133.92 1053.65 133.8 1053.47 133.68 1053.35 133.56 1053.17 133.38 1053.05 133.26 1052.87 133.08 1052.75 132.96 1052.57 132.78 1052.45 132.6 1052.33 132.42 1052.03 132.06 1051.79 131.64 1051.55 131.28 1051.25 130.86 1051.07 130.38 1050.83 129.96 1050.59 129.48 1050.41 129.06 1050.23 128.58 1050.05 128.1 1049.93 127.62 1049.81 127.14 1049.69 126.66 1049.57 126.18 1049.45 125.7 1049.39 125.22 1049.33 124.74 1049.27 124.26 1049.21 123.72 1049.21 123.24 1049.21 122.76 1049.21 122.28 1049.21 121.8 1049.27 121.32 1049.27 120.84 1049.33 120.3 1049.39 119.82 1049.45 119.34 1049.51 118.86 1049.63 118.38 1049.69 117.9 1049.81 117.42 1049.93 117 1050.11 116.04 1050.35 115.08 1050.65 114.12 1050.89 113.16 1051.43 111.3 1051.67 110.34 1051.97 109.38 1052.21 108.36 1052.45 107.4 1052.63 106.44 1052.75 105.9 1052.81 105.42 1052.93 104.94 1052.99 104.4 1053.11 103.92 1053.17 103.38 1053.23 102.9 1053.29 102.36 1053.35 101.88 1053.41 101.34 1053.47 100.8 1053.47 100.32 1053.53 99.78 1053.53 99.24 1053.53 98.7 1053.59 98.16 1053.59 97.62 1053.59 97.08 1053.53 96.54 1053.53 96 1053.53 95.46 1053.47 94.86 1053.41 94.32 1053.41 93.78 1053.35 93.18 1053.29 92.64 1053.17 92.04 1053.11 91.5 1053.05 90.9 1052.93 90.36 1052.87 89.76 1052.75 89.16 1052.63 88.56 1052.51 87.96"/>
  <polyline class="cls-1" points="990.71 106.74 1003.49 106.74 1003.49 115.2 1028.99 115.2"/>
  <polyline class="cls-1" points="1028.99 115.2 1028.99 106.74 1041.77 106.74 1041.77 89.16 1041.29 89.28 1040.87 89.4 1040.45 89.52 1039.97 89.58 1039.55 89.7 1039.07 89.76 1038.65 89.88 1038.23 89.94 1037.75 90 1037.33 90.06 1036.91 90.06 1036.43 90.12 1036.01 90.12 1035.59 90.18 1035.11 90.18 1034.69 90.18 1034.21 90.18 1033.79 90.18 1033.37 90.18 1032.89 90.18 1032.47 90.12 1032.05 90.12 1031.57 90.06 1031.15 90 1030.73 89.94 1030.25 89.88 1029.83 89.82 1029.41 89.76 1028.93 89.64 1028.51 89.58 1028.09 89.46 1027.67 89.34 1027.19 89.22 1026.77 89.1 1026.35 88.98 1025.87 88.86 1025.45 88.74 1025.03 88.56 1024.55 88.38 1024.13 88.26 1023.71 88.08 1023.23 87.9 1022.81 87.72 1022.39 87.54 1021.97 87.3 1021.49 87.12 1021.07 86.88 1020.65 86.7 1020.17 86.46 1019.75 86.22 1019.33 85.98 1018.85 85.74 1018.43 85.5 1018.01 85.2 1017.59 84.96 1017.11 84.66 1016.69 84.42 1016.27 84.12 1015.79 83.82 1015.37 83.52 1014.95 83.22 1014.53 82.92 1014.05 82.62 1013.63 82.26 1013.21 81.96 1012.73 81.6 1012.31 81.3 1011.89 80.94 1011.47 80.58 1010.99 80.22 1010.57 79.86 1010.15 79.5 1009.67 79.08 1009.25 78.72 1008.41 77.94 1007.51 77.16 1006.61 76.32 1005.77 75.54 1004.87 74.64 1004.03 73.8 1003.13 72.9 1002.23 72 1001.39 71.1 1000.49 70.14 999.59 69.24 998.69 68.28 997.85 67.32 996.95 66.36 996.05 65.4 994.25 63.42 992.45 61.44 990.65 59.46 988.85 57.48 987.95 56.52 987.05 55.56 986.09 54.6 985.19 53.64 984.29 52.74 983.33 51.78 982.43 50.88 981.47 49.98 980.57 49.14 979.61 48.24 979.13 47.88 978.71 47.46 978.23 47.04 977.75 46.62 977.27 46.2 976.79 45.84 976.31 45.48 975.83 45.06 975.35 44.7 974.87 44.34 974.39 43.98 973.91 43.62 973.43 43.32 972.95 42.96 972.47 42.6 971.99 42.3 971.51 42 971.03 41.7 970.55 41.4 970.07 41.1 969.59 40.86 969.11 40.56 968.63 40.32 968.15 40.02 967.67 39.78 967.13 39.6 966.65 39.36 966.17 39.12 965.69 38.94 965.21 38.76 964.73 38.52 964.25 38.4 963.71 38.22 963.23 38.04 962.75 37.92 962.27 37.8 961.79 37.62 961.25 37.56 960.77 37.44 960.29 37.32 959.81 37.26 959.33 37.2 958.85 37.14 958.31 37.08 957.83 37.02 957.35 37.02 956.87 37.02 956.39 37.02 955.91 37.02 955.37 37.02 954.89 37.08 954.41 37.08 953.93 37.14 953.45 37.2 952.97 37.32 952.49 37.38 952.01 37.5 951.53 37.62 951.05 37.74 950.57 37.86 950.09 37.98 949.61 38.16 949.13 38.34 948.65 38.52 948.17 38.7 947.75 38.88 947.27 39.12 946.79 39.36 946.31 39.6 945.89 39.84 945.41 40.08 944.99 40.38 944.51 40.62 944.03 40.92 943.61 41.22 943.19 41.58 942.71 41.88 942.29 42.18 941.87 42.54 941.39 42.9 940.97 43.26 940.55 43.62 940.13 44.04 939.71 44.4 939.29 44.82 938.87 45.24 938.51 45.66 938.09 46.08 937.67 46.56 937.31 46.98 936.89 47.46 936.53 47.94 936.17 48.42 935.75 48.9 935.39 49.38 935.03 49.92 934.67 50.4 934.31 50.94 933.95 51.42 933.65 51.96 933.29 52.5 932.93 53.1 932.63 53.64 932.33 54.18 931.97 54.78 931.67 55.32 931.37 55.92 931.07 56.52 930.77 57.12 930.53 57.72 930.23 58.32 929.93 58.92 929.69 59.52 929.45 60.18 929.21 60.78 928.91 61.44 928.67 62.04 928.49 62.7 928.25 63.36 928.01 64.02 927.83 64.62 927.65 65.28 927.41 65.94 927.23 66.6 927.05 67.26 926.87 67.98 926.75 68.64 926.57 69.3 926.45 69.96 926.27 70.68 926.15 71.34 926.03 72 925.91 72.72 925.79 73.38 925.73 74.04 925.61 74.76 925.55 75.42 925.43 76.14 925.37 76.8 925.31 77.46 925.25 78.18 925.25 78.84 925.19 79.56 925.19 80.22 925.13 80.88 925.13 81.6 925.13 82.26 925.13 82.92 925.19 83.64 925.19 84.3 925.25 84.96 925.25 85.62 925.31 86.28 925.37 87 925.43 87.66 925.49 88.26 925.61 88.92 925.67 89.58 925.79 90.24 925.91 90.9 925.97 91.5 926.09 92.16 926.27 92.82 926.39 93.42 926.51 94.02 926.69 94.68 926.81 95.28 926.99 95.88 927.17 96.48 927.35 97.08 927.53 97.68 927.71 98.22 927.95 98.82 928.13 99.36 928.37 99.96 928.55 100.5 928.79 101.04 929.03 101.58 929.27 102.12 929.51 102.66 929.75 103.2 930.05 103.74 930.29 104.22 930.53 104.7 930.83 105.24 931.13 105.72 931.37 106.2 931.67 106.68 931.97 107.1 932.27 107.58 932.57 108 932.87 108.48 933.17 108.9 933.47 109.32 933.83 109.74 934.13 110.1 934.43 110.52 934.79 110.88 935.09 111.3 935.45 111.66 935.75 112.02 936.11 112.32 936.47 112.68 936.77 113.04 937.13 113.34 937.49 113.64 937.85 113.94 938.21 114.24 938.51 114.54 938.87 114.78 939.23 115.08 939.59 115.32 939.95 115.56 940.31 115.8 940.67 116.04 941.03 116.22 941.39 116.4 941.75 116.64 942.11 116.82 942.47 117 942.83 117.12 943.19 117.3 943.55 117.42 943.91 117.6 944.27 117.72 944.63 117.84 944.99 117.96 945.35 118.02 945.71 118.14 946.07 118.2 946.37 118.26 946.73 118.32 947.09 118.38 947.45 118.44 947.81 118.44 948.11 118.5 948.47 118.5 948.83 118.5 949.13 118.5 949.49 118.5 949.85 118.44 950.15 118.44 950.51 118.38 950.81 118.32 951.17 118.26 951.47 118.2 951.77 118.14 952.13 118.08 952.43 118.02 952.73 117.9 953.03 117.78 953.39 117.72 953.69 117.6 953.99 117.48 954.29 117.3 954.59 117.18 954.89 117.06 955.19 116.88 955.49 116.76 955.79 116.58 956.03 116.46 956.33 116.28 956.93 115.92 957.47 115.56 958.01 115.14 958.61 114.78 959.15 114.36 959.69 113.94 960.17 113.46 960.71 113.04 961.25 112.56 962.27 111.66 963.35 110.7 964.37 109.8 964.85 109.38 965.39 108.9 965.93 108.48 966.41 108.06 966.95 107.64 967.49 107.22 968.03 106.8 968.57 106.44 969.11 106.08 969.65 105.78 970.25 105.42 970.79 105.12 971.09 105 971.39 104.82 971.69 104.7 971.99 104.58 972.23 104.46 972.53 104.34 972.83 104.22 973.13 104.1 973.43 104.04 973.79 103.92 974.09 103.86 974.39 103.74 974.69 103.68 974.99 103.62 975.35 103.56 975.65 103.5 975.95 103.44 976.31 103.38 976.61 103.38 976.97 103.32 977.27 103.32 977.63 103.26 977.99 103.26 978.29 103.26 978.65 103.26 979.01 103.26 979.37 103.26 979.73 103.32 980.09 103.32 980.45 103.38 980.81 103.44 981.17 103.44 981.53 103.5 981.89 103.56 982.25 103.62 982.61 103.74 983.03 103.8 983.39 103.92 983.75 103.98 984.17 104.1 984.53 104.22 984.95 104.34 985.31 104.46 985.73 104.58 986.15 104.7 986.51 104.88 986.93 105 987.35 105.18 987.77 105.36 988.19 105.54 988.61 105.72 989.03 105.9 989.45 106.08 989.87 106.32 990.29 106.5 990.71 106.74"/>
</svg>